<?xml version="1.0" encoding="utf-8"?>
<!-- Svg Vector Icons : http://www.onlinewebfonts.com/icon -->
<!DOCTYPE svg PUBLIC "-//W3C//DTD SVG 1.1//EN" "http://www.w3.org/Graphics/SVG/1.1/DTD/svg11.dtd">
<svg version="1.1" xmlns="http://www.w3.org/2000/svg" xmlns:xlink="http://www.w3.org/1999/xlink" x="0px" y="0px" viewBox="0 0 256 256" enable-background="new 0 0 256 256" xml:space="preserve">
<metadata> Svg Vector Icons : http://www.onlinewebfonts.com/icon </metadata>
<g><g><g><path stroke-width="12" fill-opacity="0" stroke="#000000"  d="M24.1,44c-5.7,1.6-10.1,5.2-12.7,10.4c-1.2,2.5-1.4,3.3-1.4,8c0,4.6,0.1,5.4,1.4,8.1c3.5,7.5,12.2,12.3,20.1,11C46.7,79,53.2,61.1,43,49.9c-2.9-3.2-5.7-4.9-9.6-5.9C30,43.1,27.5,43.1,24.1,44z M32,51.8c4.5,1.4,7.5,4.9,8,9.4c0.7,5.9-3.4,11.5-9.5,12.6c-4.2,0.8-9.6-1.9-11.7-6c-1-1.9-1.2-2.7-1-5.7c0.1-2.9,0.4-3.8,1.6-5.6c1.8-2.5,3.3-3.7,5.9-4.6C27.7,50.9,29.2,50.9,32,51.8z"/><path stroke-width="12" fill-opacity="0" stroke="#000000"  d="M82.5,58.7c-0.8,0.7-1.2,1.8-1.2,2.7c0,0.9,0.4,2,1.2,2.7l1.2,1.2h79.9h79.9l1.2-1.2c1.6-1.6,1.6-3.8,0-5.4l-1.2-1.2h-79.9H83.7L82.5,58.7z"/><path stroke-width="12" fill-opacity="0" stroke="#000000"  d="M22,110.5c-5,2.1-8.5,5.4-10.7,10.1c-1.1,2.4-1.3,3.3-1.3,7.9c0,4.6,0.1,5.4,1.4,7.9c2.1,4.3,4.8,7,9.1,9.1c3.5,1.8,4,1.9,8.4,1.9c4.3,0,5-0.1,7.9-1.6c3.9-2,7.8-5.9,9.7-9.8c1.1-2.5,1.3-3.5,1.3-7.5c0-4.4-0.1-4.9-1.9-8.4c-2.1-4.3-4.8-7-9.1-9.1c-2.3-1.1-3.5-1.4-7.5-1.5C25.3,109.4,24.3,109.6,22,110.5z M33.8,118.7c2.5,1.3,5.2,4.5,5.9,7c1.2,4.5-0.7,10-4.4,12.4c-5.4,3.6-12.2,2.3-15.9-3.1c-1.3-1.8-1.5-2.6-1.7-5.6c-0.1-3,0-3.9,1-5.7C21.6,118.1,28.3,116,33.8,118.7z"/><path stroke-width="12" fill-opacity="0" stroke="#000000"  d="M82.5,129.3c-0.8,0.7-1.2,1.8-1.2,2.7c0,0.9,0.4,2,1.2,2.7l1.2,1.2h79.9h79.9l1.2-1.2c1.6-1.6,1.6-3.8,0-5.4l-1.2-1.2h-79.9H83.7L82.5,129.3z"/><path stroke-width="12" fill-opacity="0" stroke="#000000"  d="M25,174.8c-6.1,1.4-10.8,5.1-13.4,10.6c-1.4,2.9-1.5,3.6-1.5,8.3c0,4.7,0.1,5.4,1.4,8c3.6,7.5,12.2,12.1,20,10.7c4.4-0.7,7.5-2.4,10.9-5.7c11.4-11.3,4.2-30.6-12.1-32.3C28.9,174.3,26.4,174.4,25,174.8z M33.8,183.4c2.5,1.3,5.2,4.5,5.9,7c1.2,4.5-0.7,10-4.4,12.4c-5.4,3.6-12.2,2.3-15.9-3.1c-1.3-1.8-1.5-2.6-1.7-5.6c-0.1-3,0-3.9,1-5.7C21.6,182.8,28.3,180.7,33.8,183.4z"/><path stroke-width="12" fill-opacity="0" stroke="#000000"  d="M82.5,192c-0.8,0.7-1.2,1.8-1.2,2.7c0,0.9,0.4,2,1.2,2.7l1.2,1.2h79.9h79.9l1.2-1.2c1.6-1.6,1.6-3.8,0-5.4l-1.2-1.2h-79.9H83.7L82.5,192z"/></g></g></g>
</svg>